<svg width="1024" height="1024" version="1.1" viewBox="0 0 1024 1024" xml:space="preserve" xmlns="http://www.w3.org/2000/svg"><path d="m678.76 149.54c-123.81 0-269.3 75.399-269.3 204.51 0 133.24 147.55 248.92 147.55 352.21 0 78.497-53.668 127.05-131.05 127.05-74.287 0-122.78-66.107-122.78-120.85 0-60.939 36.129-88.826 69.144-115.68 14.445-10.329 21.663-15.501 21.663-24.796 0-10.329-5.1678-17.546-17.549-17.546-66.033 0-211.51 73.321-211.51 160.08 0 86.76 100.08 193.16 276.52 193.16 122.78 0 250.72-92.961 250.72-215.87 0-122.91-150.65-236.53-150.65-364.61 0-60.939 51.604-116.71 123.83-116.71 29.921 0 50.548 15.488 50.548 42.343 0 33.051-24.754 69.21-43.326 92.965-10.318 13.427-13.413 17.566-13.413 24.796 0 7.23 8.2419 15.487 17.528 15.487 37.143 0 145.49-78.509 145.49-151.84 0-58.873-67.06-84.686-143.41-84.686z" stroke-dasharray="1.058, 3.17399" stroke-width="42.999"/></svg>
