<svg width="106.17mm" height="25.629mm" version="1.1" viewBox="0 0 106.17 25.629" xmlns="http://www.w3.org/2000/svg">
 <g transform="translate(-67.131 -130.11)">
  <path d="m79.78 130.11c-3.048 0-6.6296 1.8542-6.6296 5.0292 0 3.2766 3.6323 6.1215 3.6323 8.6615 0 1.9304-1.3212 3.1244-3.2262 3.1244-1.8288 0-3.0226-1.6257-3.0226-2.9719 0-1.4986 0.88942-2.1844 1.7022-2.8448 0.3556-0.254 0.5333-0.38119 0.5333-0.60979 0-0.254-0.12722-0.4315-0.43202-0.4315-1.6256 0-5.2069 1.8031-5.2069 3.9367 0 2.1336 2.4639 4.7501 6.8073 4.7501 3.0226 0 6.1722-2.2861 6.1722-5.3087 0-3.0226-3.7088-5.8168-3.7088-8.9664 0-1.4986 1.2704-2.8701 3.0484-2.8701 0.7366 0 1.2444 0.38088 1.2444 1.0413 0 0.8128-0.6094 1.702-1.0666 2.2862-0.254 0.3302-0.33021 0.43198-0.33021 0.60978s0.2029 0.38086 0.4315 0.38086c0.9144 0 3.5817-1.9307 3.5817-3.7341 0-1.4478-1.6509-2.0826-3.5305-2.0826zm45.237 0.71107c-3.6576 0-7.4419 9.0172-7.4419 14.123 0 0.05015 9.6e-4 0.09953 0.00258 0.14883-0.38609 0.55647-1.4684 1.959-2.5683 1.959-0.508 0-0.81287-0.3806-0.81287-0.9648 0-2.4638 1.448-4.547 1.448-6.0709 0-0.381-1.2447-1.4475-1.9813-1.4475-0.3302 0-0.58407 0.20326-0.71107 0.48266-0.6096 1.4224-1.5749 5.2066-2.1337 6.2988-0.4064 0.8128-1.4222 1.8035-2.235 1.8035-0.381 0-0.58446-0.35582-0.58446-0.76222 0-2.4638 1.6511-4.8513 1.6511-6.3753 0-0.381-1.2446-1.4475-2.0066-1.4475-0.3048 0-0.55874 0.20326-0.68574 0.48266-0.50991 1.1898-1.5525 4.1736-1.88 6.1882-0.4533 0.6231-1.4506 1.8123-2.4634 1.8123-0.508 0-0.81287-0.3806-0.81287-0.9648 0-2.0574 1.5751-4.2926 1.5751-5.6642 0-0.889-0.99091-1.8542-1.9053-1.8542-1.8542 0-3.8096 1.8795-3.8096 1.8795-0.3556-1.0668-0.96548-1.8795-2.0831-1.8795-1.7018 0-3.5305 1.6252-3.5305 1.6252-0.7874-1.2192-1.3972-1.3715-1.7782-1.3715-0.3048 0-0.55875 0.17786-0.68575 0.48266-0.44692 1.1076-1.4134 3.4936-1.8433 5.8844-0.43447 0.60674-1.4594 1.8624-2.5001 1.8624-0.508 0-0.81287-0.3806-0.81287-0.9648 0-2.4638 1.4227-4.547 1.4227-6.0709 0-0.381-1.2446-1.4475-2.0066-1.4475-0.3048 0-0.55875 0.20326-0.68575 0.48266-0.6096 1.4224-1.9813 5.0798-1.9813 6.9086 0 1.651 1.2952 2.7941 3.2256 2.7941 1.257 0 2.3491-0.78078 3.1269-1.5617-9.73e-4 0.05481-0.002584 0.10994-0.002584 0.16433 0 0.8128 1.0413 1.3973 2.3875 1.3973 0.3556 0 0.55914-0.07618 0.55914-0.50798 0-4.9022 2.1588-7.6708 3.4034-7.6708 0.3302 0 0.45734 0.17771 0.45734 0.53331 0 1.2446-1.4986 4.1146-1.4986 6.2482 0 0.8128 1.0413 1.3973 2.3875 1.3973 0.3556 0 0.55862-0.07618 0.55862-0.50798 0-1.1938 0.33052-2.7178 1.0671-4.4958 0.8382-2.0828 1.9811-3.175 2.5399-3.175 0.254 0 0.45734 0.15246 0.45734 0.48266 0 1.1684-1.2955 2.616-1.2955 4.902 0 1.651 1.2952 2.7941 3.2256 2.7941 1.37 0 2.5431-0.92724 3.328-1.7715 0.38161 1.0288 1.551 1.7715 2.5141 1.7715 1.3208 0 2.6671-0.96551 3.4799-1.9053 0.3048 0.9398 1.1428 1.9053 3.0732 1.9053 1.6214 0 2.9674-1.2983 3.7197-2.221 0.61246 1.4154 2.0354 2.221 3.545 2.221 1.3944 0 2.5851-0.9605 3.3698-1.8164 0.33028 1.0979 1.3087 1.8164 2.421 1.8164 1.9304 0 3.607-2.159 3.607-2.159 0.1778 1.4224 1.27 2.159 2.667 2.159 2.5146 0 4.3687-3.1244 4.3687-3.1244 0.5334-0.7874 1.4987-2.337 2.4639-4.8007 0 0 1.5239 0.10178 1.5239 0.60978 0 0.7874-1.6004 2.5397-1.6004 4.7749 0 1.397 1.2958 2.5404 3.2262 2.5404 1.3946 0 2.5851-0.96093 3.3698-1.8169 0.41001 1.1077 1.5359 1.8169 3.0561 1.8169 1.4957 0 2.758-1.1052 3.5352-2.0009 0.57411 1.2148 2.1019 2.0009 3.3734 2.0009 1.4129 0 2.6177-0.98628 3.4019-1.8505 0.34944 1.0698 1.5544 1.8505 2.542 1.8505 1.3208 0 2.6671-0.96551 3.4799-1.9053-0.127 0.6096-0.30514 1.4988-0.55914 2.4386-3.0734 1.2192-5.3082 2.3113-5.3082 4.0385 0 1.3462 1.3207 2.4128 2.8701 2.4128 3.0734 0 4.3686-3.4033 5.2322-6.4513 2.3368-1.2192 3.6575-2.4639 4.5465-3.6576 0 0 0.27957-0.38119 0.27957-0.60979 0-0.2794-0.2285-0.50798-0.5333-0.50798s-0.55914 0.35554-0.55914 0.35554c-0.7366 1.016-1.7526 2.0321-3.3528 2.9719l0.30489-1.1431c0.7366-2.5146 1.6257-5.969 1.6257-6.6802 0-0.381-1.2447-1.4475-1.9813-1.4475-0.3302 0-0.63486 0.17786-0.71106 0.48266-0.508 1.7272-1.1685 4.5462-2.1337 6.2988-0.4318 0.7874-1.4222 1.8035-2.235 1.8035-0.381 0-0.58446-0.35582-0.58446-0.76222 0-2.2352 1.6511-5.0545 1.6511-6.3753 0-0.381-1.2446-1.4475-2.0066-1.4475-0.3048 0-0.55875 0.20326-0.68575 0.48266-0.49413 1.153-1.4888 3.9911-1.848 5.9991-0.35775 0.52328-1.468 2.0014-2.5973 2.0014-0.7366 0-1.3462-0.55885-1.3462-1.3208 0-1.8288 0.93999-4.6733 1.7782-6.9339h1.5746c0.3302 0 0.76223-0.63484 0.76223-0.88884 0-0.1524-0.07609-0.22892-0.20309-0.22892h-1.7022c0.4572-1.2446 0.83819-2.1335 0.83819-2.3621 0-0.4572-1.2188-1.5239-1.9808-1.5239-0.3048 0-0.55875 0.20326-0.68575 0.48266-0.45719 0.8128-0.96529 2.0318-1.4733 3.4034h-0.50798c-0.3556 0-0.76223 0.63535-0.76223 0.88935 0 0.1524 0.07609 0.22841 0.20309 0.22841h0.68575c-0.78849 2.3429-1.4567 4.8845-1.5978 6.4043-0.4397 0.61151-1.458 1.8505-2.4913 1.8505-0.508 0-0.81287-0.3806-0.81287-0.9648 0-2.4638 1.4226-4.547 1.4226-6.0709 0-0.381-1.2446-1.4475-2.0066-1.4475-0.3048 0-0.55875 0.20326-0.68575 0.48266-0.54451 1.2705-1.6964 4.3232-1.9363 6.2642-0.47567 0.63877-1.4336 1.7363-2.4071 1.7363-0.508 0-0.83819-0.30463-0.83819-0.88883 0-2.0574 1.8795-4.2164 1.8795-5.3594 0-0.6604-0.43168-1.219-1.0413-1.219s-0.9654 0.33021-2.1084 0.33021c-0.6096 0-1.0666-0.17822-1.0666-0.53382 0-0.4064 0.33021-0.81238 0.33021-1.4728 0-0.508-0.8639-1.3208-1.5751-1.3208-0.6096 0-1.4733 0.83808-1.4733 1.8795 0 1.27 0.83819 1.8795 0.83819 1.8795-0.71428 2.3152-1.6867 3.7637-2.1621 4.4519-0.02979 0.04032-0.04755 0.06925-0.04755 0.06925-0.01938 0.03231-0.04712 0.07313-0.07751 0.11937-0.3014 0.4517-1.4602 2.065-2.6402 2.065-0.4318 0-0.71107-0.30467-0.71107-0.71107 0-1.7272 1.4728-4.6227 1.4728-5.3847 0-0.889-1.041-1.1937-1.803-1.1937 0 0-0.71142-1.1937-2.7688-1.1937-2.57 0-5.3546 3.2879-5.7847 6.6616-0.45018 0.62055-1.4524 1.8216-2.4701 1.8216-1.0414 0-1.6257-0.8382-1.6257-2.0066 0-0.889 0.20309-1.9301 0.20309-1.9301 2.54-2.159 6.2994-8.0518 6.2994-10.211 0-0.91439-0.99072-2.0831-2.1337-2.0831zm-38.227 1.6511c-1.1176 0-2.1337 1.2698-2.1337 2.5652 0 0.9144 0.63489 1.448 1.3715 1.448 1.0922 0 2.0572-1.2702 2.0572-2.6164 0-0.8382-0.55841-1.3968-1.295-1.3968zm65.506 0c-1.1176 0-2.1332 1.2698-2.1332 2.5652 0 0.9144 0.63489 1.448 1.3715 1.448 1.0922 0 2.0572-1.2702 2.0572-2.6164 0-0.8382-0.55893-1.3968-1.2955-1.3968zm-26.72 0.05064c0.1778 0 0.30437 0.12745 0.30437 0.35605 0 1.5494-2.8952 7.0607-4.6478 8.5085 1.0414-4.2418 3.429-8.8646 4.3434-8.8646zm5.486 7.5184c0.508 0 0.91467 0.35584 0.91467 1.0924 0 1.9558-2.2354 5.6896-3.4546 5.6896-0.5334 0-0.73639-0.40648-0.73639-1.1431 0-2.1336 1.8031-5.6389 3.2763-5.6389zm34.163 10.821c-0.6096 1.8542-1.4988 3.5305-2.6164 3.5305-0.3048 0-0.45734-0.17778-0.45734-0.50798 0-0.7112 1.2703-2.0066 3.0737-3.0226z" stroke-dasharray="1.058, 3.17399" stroke-width="1.058"/>
 </g>
</svg>
