<svg width="512" height="512" version="1.1" viewBox="0 0 135.47 135.47" xml:space="preserve" xmlns="http://www.w3.org/2000/svg"><path d="m39.669 125.72c-3.8341-0.27043-7.1601-1.5744-10.145-3.9775-1.0109-0.81375-2.166-1.9606-3.1001-3.0779-1.8854-2.2552-3.5849-5.1134-5.0472-8.488-3.2768-7.5622-5.4035-17.973-6.2387-30.539-0.38564-5.8028-0.49287-12.77-0.27064-17.584 0.52864-11.451 3.0722-21.282 7.5152-29.044 3.8027-6.6437 8.9506-11.785 15.469-15.45 3.392-1.9068 7.6701-3.6313 12.169-4.9055 5.6596-1.6028 11.594-2.5433 17.97-2.8482 1.3865-0.066248 2.5252-0.083725 4.5888-0.070414 2.0888 0.013514 2.5355 0.025504 4.0612 0.10927 6.662 0.36563 13.058 1.5012 18.802 3.3384 4.9763 1.5916 9.6164 4.1817 13.581 7.5808 1.3827 1.1854 2.8395 2.6389 3.9972 3.988 2.3869 2.7815 4.3054 5.908 5.5815 9.0955 1.5538 3.8814 2.244 7.8439 2.0905 12.001-0.0897 2.43-0.34205 4.4824-0.81787 6.6519-1.2393 5.6505-3.8315 10.734-7.6645 15.031-0.76407 0.85652-2.003 2.08-2.9161 2.8796-3.5678 3.1246-7.8523 5.5599-12.625 7.1764-1.307 0.44265-1.9479 0.62472-4.2622 1.2109-3.4088 0.8634-5.1132 1.3439-7.0386 1.9842-4.9297 1.6396-8.423 3.5536-11.551 6.3286-0.45818 0.40656-1.6301 1.5805-2.0482 2.0518-2.0804 2.345-3.5285 4.5818-5.4244 8.3793-0.79739 1.5971-1.3491 2.7784-2.6913 5.7624-2.0841 4.6332-2.9238 6.4067-3.9919 8.4308-2.5339 4.8018-5.0229 8.0686-7.8718 10.332-2.7824 2.2104-5.8949 3.404-9.5299 3.6547-0.44029 0.0303-2.1467 0.0285-2.5911-3e-3z" stroke-width=".025782"/></svg>
